<svg xmlns="http://www.w3.org/2000/svg" width="699.813" height="255.31" viewBox="0 0 699.813 255.31"><g transform="translate(-1248.63 -782.159)"><g transform="translate(1248.63 782.159)"><path d="M1355.236,832.487a60.113,60.113,0,0,1,10.121,18.152,67.063,67.063,0,0,1,3.63,22.554,63.483,63.483,0,0,1-4.73,24.588,61.548,61.548,0,0,1-12.872,19.694,60.19,60.19,0,0,1-19.089,13.091,57.99,57.99,0,0,1-23.487,4.785,59.582,59.582,0,0,1-13.7-1.54,65.027,65.027,0,0,1-12.486-4.29l-2.64,3.63H1249.73l13.753-18.483a66.16,66.16,0,0,1-10.123-66.339,60.873,60.873,0,0,1,12.928-19.747,60.1,60.1,0,0,1,19.141-13.038,58.319,58.319,0,0,1,23.38-4.732,60.211,60.211,0,0,1,14.412,1.706,62.784,62.784,0,0,1,13.091,4.786l2.64-3.521h30.254ZM1279.1,873.193a36.968,36.968,0,0,0,.936,8.415,35.265,35.265,0,0,0,2.585,7.426l34.764-46.427a34.026,34.026,0,0,0-4.235-1.045,24.5,24.5,0,0,0-4.344-.386,30.068,30.068,0,0,0-11.608,2.256,27.265,27.265,0,0,0-9.461,6.491,31.005,31.005,0,0,0-6.327,10.123A35.742,35.742,0,0,0,1279.1,873.193Zm59.63,0a34.657,34.657,0,0,0-3.081-14.632l-34.1,45.766a17.191,17.191,0,0,0,3.574.717q1.816.164,3.687.164a29.408,29.408,0,0,0,11.6-2.312,28.877,28.877,0,0,0,9.517-6.489,30.453,30.453,0,0,0,6.436-10.123A35.077,35.077,0,0,0,1338.734,873.193Z" transform="translate(-1248.63 -768.457)" fill="#fff"/><path d="M1472.65,933.151h-7.261l-11.664-16.171a96.176,96.176,0,0,1-9.075,7.206,67.208,67.208,0,0,1-10.066,5.83,61.73,61.73,0,0,1-10.837,3.905,45.143,45.143,0,0,1-11.277,1.429,64.974,64.974,0,0,1-23.378-4.18,55.513,55.513,0,0,1-19.145-12.155,56.969,56.969,0,0,1-12.925-19.528,68.845,68.845,0,0,1-4.732-26.294,65.693,65.693,0,0,1,4.732-25.249,60.13,60.13,0,0,1,12.925-19.748,58.381,58.381,0,0,1,19.145-12.817,60.138,60.138,0,0,1,23.378-4.566,45.788,45.788,0,0,1,11.332,1.431,58.864,58.864,0,0,1,10.891,3.962,68.087,68.087,0,0,1,10.068,5.939,83.355,83.355,0,0,1,8.964,7.373l11.664-13.973h7.261ZM1442.4,873.193a31.21,31.21,0,0,0-2.367-11.938,34.311,34.311,0,0,0-6.434-10.23,32.026,32.026,0,0,0-9.517-7.151,25.836,25.836,0,0,0-11.606-2.7,32.112,32.112,0,0,0-11.608,2.092,26.456,26.456,0,0,0-9.46,6.161,28.894,28.894,0,0,0-6.325,10.065,41.758,41.758,0,0,0,0,27.394,28.88,28.88,0,0,0,6.325,10.068,26.436,26.436,0,0,0,9.46,6.161,32.111,32.111,0,0,0,11.608,2.09,25.835,25.835,0,0,0,11.606-2.695,32,32,0,0,0,9.517-7.151,34.339,34.339,0,0,0,6.434-10.232A31.2,31.2,0,0,0,1442.4,873.193Z" transform="translate(-1199.062 -768.457)" fill="#fff"/><path d="M1494.692,946.853h-30.254V782.159h30.254V886.014l44.776-56.768h34.545l-39.054,49.067,39.054,68.54h-34.545l-23.872-42.8-20.9,27.725Z" transform="translate(-1145.436 -782.159)" fill="#fff"/><path d="M1608.287,904.327a17.172,17.172,0,0,0,3.521.717q1.756.164,3.518.164A29.62,29.62,0,0,0,1623.8,904a30.7,30.7,0,0,0,7.647-3.466,28.534,28.534,0,0,0,6.38-5.5,28.857,28.857,0,0,0,4.566-7.206l22,22.114a59.2,59.2,0,0,1-9.626,10.672A60.661,60.661,0,0,1,1643,928.64a58.638,58.638,0,0,1-13.312,5.007,60.333,60.333,0,0,1-14.358,1.7,59.478,59.478,0,0,1-42.52-17.493,60.317,60.317,0,0,1-12.927-19.638,64.58,64.58,0,0,1-4.732-25.027,66.724,66.724,0,0,1,4.732-25.524,57.676,57.676,0,0,1,32.069-32.346,60.753,60.753,0,0,1,23.377-4.511,59.25,59.25,0,0,1,14.412,1.761,60.338,60.338,0,0,1,25.194,13.147,59.861,59.861,0,0,1,9.682,10.727Zm15.4-61.939a17.414,17.414,0,0,0-4.126-.99,39.559,39.559,0,0,0-4.238-.22,30.051,30.051,0,0,0-11.6,2.256,27.625,27.625,0,0,0-9.462,6.436,30.351,30.351,0,0,0-6.327,10.066,36.042,36.042,0,0,0-2.309,13.258c0,1.1.055,2.349.164,3.74s.293,2.806.55,4.235.568,2.807.935,4.126a15.258,15.258,0,0,0,1.431,3.521Z" transform="translate(-1102.06 -768.457)" fill="#fff"/><path d="M1680.865,932.439h-30.033V814.612h7.261l9.9,11.441a52.832,52.832,0,0,1,35.646-13.75,50.841,50.841,0,0,1,20.353,4.126,52.694,52.694,0,0,1,16.723,11.332,53.7,53.7,0,0,1,11.277,16.831,51.562,51.562,0,0,1,4.125,20.519v67.33h-30.035v-67.33a22.05,22.05,0,0,0-1.76-8.746,22.673,22.673,0,0,0-4.841-7.206,22.91,22.91,0,0,0-7.15-4.841,21.685,21.685,0,0,0-8.692-1.759,22.529,22.529,0,0,0-21.012,13.806,22.026,22.026,0,0,0-1.762,8.746Z" transform="translate(-1056.306 -767.745)" fill="#fff"/></g><g transform="translate(1441.676 999.231)"><path d="M1403.552,942.365l-4.89,4.915a6.684,6.684,0,0,0-1-1.846,6.763,6.763,0,0,0-1.431-1.382,6.3,6.3,0,0,0-3.631-1.149,6.041,6.041,0,0,0-2.579.563,6.327,6.327,0,0,0-2.1,1.576,7.624,7.624,0,0,0-1.406,2.408,8.9,8.9,0,0,0-.512,3.081,6.484,6.484,0,0,0,.512,2.568,6.78,6.78,0,0,0,1.406,2.1,6.548,6.548,0,0,0,4.683,1.932,6.591,6.591,0,0,0,1.883-.269,6.782,6.782,0,0,0,1.7-.77,6.242,6.242,0,0,0,1.418-1.223,6.348,6.348,0,0,0,1.015-1.6l4.89,4.915a13.211,13.211,0,0,1-2.139,2.371,13.548,13.548,0,0,1-2.616,1.786,13.125,13.125,0,0,1-2.958,1.112,13.4,13.4,0,0,1-3.191.38,13.063,13.063,0,0,1-5.194-1.039,13.4,13.4,0,0,1-7.126-7.077,12.853,12.853,0,0,1-1.051-5.184,14.913,14.913,0,0,1,1.051-5.623,14.448,14.448,0,0,1,2.872-4.56,13.567,13.567,0,0,1,4.254-3.067,12.224,12.224,0,0,1,5.194-1.125,12.535,12.535,0,0,1,3.215.417,12.972,12.972,0,0,1,5.648,3.153A12.182,12.182,0,0,1,1403.552,942.365Z" transform="translate(-1379.227 -925.593)" fill="#fff"/><path d="M1418.106,963.018h-6.674V936.833h1.613l2.2,3.106a11.8,11.8,0,0,1,7.922-3.057h5.889v6.65h-5.889a5.022,5.022,0,0,0-5.061,5.061Z" transform="translate(-1363.827 -925.269)" fill="#fff"/><path d="M1449.541,956.937a3.75,3.75,0,0,0,.782.158c.262.025.522.037.782.037a6.585,6.585,0,0,0,1.883-.269,6.777,6.777,0,0,0,1.7-.77,6.281,6.281,0,0,0,1.419-1.223,6.422,6.422,0,0,0,1.014-1.6l4.89,4.915a13.179,13.179,0,0,1-2.139,2.371,13.473,13.473,0,0,1-2.617,1.786,13.114,13.114,0,0,1-2.958,1.112,13.4,13.4,0,0,1-3.191.38,13.224,13.224,0,0,1-9.449-3.888,13.437,13.437,0,0,1-2.874-4.364,14.4,14.4,0,0,1-1.051-5.562,14.864,14.864,0,0,1,1.051-5.672,12.821,12.821,0,0,1,7.128-7.188,13.5,13.5,0,0,1,5.194-1,13.123,13.123,0,0,1,3.2.392,13.4,13.4,0,0,1,5.6,2.921,13.233,13.233,0,0,1,2.152,2.384Zm3.422-13.765a3.844,3.844,0,0,0-.917-.22,8.786,8.786,0,0,0-.941-.049,6.651,6.651,0,0,0-2.579.5,6.109,6.109,0,0,0-2.1,1.428,6.778,6.778,0,0,0-1.406,2.238,8.025,8.025,0,0,0-.515,2.946c0,.244.013.522.038.832s.065.622.121.94.127.624.208.918a3.358,3.358,0,0,0,.318.782Z" transform="translate(-1351.251 -925.593)" fill="#fff"/><path d="M1495.674,963.342h-1.613l-2.591-3.595a21.353,21.353,0,0,1-2.018,1.6,14.922,14.922,0,0,1-2.236,1.295,13.69,13.69,0,0,1-2.408.869,10.04,10.04,0,0,1-2.506.318,14.438,14.438,0,0,1-5.2-.93,12.344,12.344,0,0,1-4.254-2.7,12.675,12.675,0,0,1-2.872-4.34,15.315,15.315,0,0,1-1.051-5.843,14.622,14.622,0,0,1,1.051-5.611,13.37,13.37,0,0,1,2.872-4.387,12.925,12.925,0,0,1,4.254-2.848,13.348,13.348,0,0,1,5.2-1.016,10.2,10.2,0,0,1,2.519.318,13.112,13.112,0,0,1,2.418.881,15.263,15.263,0,0,1,2.238,1.319,18.5,18.5,0,0,1,1.993,1.639l2.591-3.106h1.613Zm-6.721-13.324a6.977,6.977,0,0,0-.526-2.653,7.608,7.608,0,0,0-1.431-2.273,7.141,7.141,0,0,0-2.114-1.589,5.744,5.744,0,0,0-2.58-.6,7.16,7.16,0,0,0-2.581.464,5.882,5.882,0,0,0-2.1,1.37,6.411,6.411,0,0,0-1.407,2.236,9.286,9.286,0,0,0,0,6.087,6.425,6.425,0,0,0,1.407,2.236,5.838,5.838,0,0,0,2.1,1.369,7.126,7.126,0,0,0,2.581.466,5.726,5.726,0,0,0,2.58-.6,7.043,7.043,0,0,0,2.114-1.589,7.611,7.611,0,0,0,1.431-2.273A6.965,6.965,0,0,0,1488.952,950.017Z" transform="translate(-1336.333 -925.593)" fill="#fff"/><path d="M1517.735,966.387a11.375,11.375,0,0,1-4.548-.916,11.828,11.828,0,0,1-6.245-6.247,11.354,11.354,0,0,1-.917-4.547V946.9h-3.253v-6.65h3.253V929.787h6.649v10.464h10.121v6.65h-10.121v7.775a4.991,4.991,0,0,0,.39,1.967,5.05,5.05,0,0,0,1.076,1.6,5.144,5.144,0,0,0,1.614,1.088,4.92,4.92,0,0,0,1.981.4h5.06v6.65Z" transform="translate(-1320.151 -928.638)" fill="#fff"/><path d="M1540.625,933.461a4.231,4.231,0,0,1-.357,1.734,4.435,4.435,0,0,1-.965,1.407,4.671,4.671,0,0,1-1.429.953,4.5,4.5,0,0,1-3.5,0,4.461,4.461,0,0,1-2.371-2.361,4.376,4.376,0,0,1,0-3.459,4.445,4.445,0,0,1,2.371-2.371,4.483,4.483,0,0,1,3.5,0,4.649,4.649,0,0,1,1.429.955,4.392,4.392,0,0,1,.965,1.416A4.271,4.271,0,0,1,1540.625,933.461Zm-1.15,33.3h-6.723V940.574h6.723Z" transform="translate(-1306.341 -929.01)" fill="#fff"/><path d="M1562.189,963.018l-9.975-26.184h7.6l5.722,16.332,5.7-16.332h7.627l-9.975,26.184Z" transform="translate(-1296.508 -925.269)" fill="#fff"/><path d="M1595.863,956.937a3.789,3.789,0,0,0,.782.158c.262.025.522.037.783.037a6.583,6.583,0,0,0,1.882-.269,6.78,6.78,0,0,0,1.7-.77,6.28,6.28,0,0,0,1.419-1.223,6.381,6.381,0,0,0,1.014-1.6l4.891,4.915a13.17,13.17,0,0,1-2.141,2.371,13.453,13.453,0,0,1-2.615,1.786,13.167,13.167,0,0,1-2.959,1.112,13.392,13.392,0,0,1-3.19.38,13.224,13.224,0,0,1-9.45-3.888,13.436,13.436,0,0,1-2.872-4.364,14.371,14.371,0,0,1-1.051-5.562,14.839,14.839,0,0,1,1.051-5.672,12.813,12.813,0,0,1,7.126-7.188,13.5,13.5,0,0,1,5.2-1,13.133,13.133,0,0,1,3.2.392,13.429,13.429,0,0,1,5.6,2.921,13.334,13.334,0,0,1,2.152,2.384Zm3.422-13.765a3.84,3.84,0,0,0-.917-.22,8.777,8.777,0,0,0-.94-.049,6.655,6.655,0,0,0-2.581.5,6.1,6.1,0,0,0-2.1,1.428,6.756,6.756,0,0,0-1.407,2.238,8.022,8.022,0,0,0-.513,2.946c0,.244.013.522.037.832s.065.622.121.94.127.624.208.918a3.359,3.359,0,0,0,.319.782Z" transform="translate(-1281.283 -925.593)" fill="#fff"/></g></g></svg>